<svg width="1055" height="1425" viewBox="0 0 1055 1425" fill="none" xmlns="http://www.w3.org/2000/svg">
<path d="M220.175 118.75H286.873V523.094L69.505 1014.12C59.6785 1046.89 56.4004 1082.1 59.9504 1116.77C63.5004 1151.44 73.773 1184.53 89.8926 1213.23C106.012 1241.92 127.5 1265.37 152.525 1281.57C177.55 1297.76 205.369 1306.23 233.611 1306.25H724.009C752.251 1306.23 780.07 1297.76 805.095 1281.57C830.119 1265.37 851.608 1241.92 867.727 1213.23C883.847 1184.53 894.119 1151.44 897.669 1116.77C901.219 1082.1 897.941 1046.89 888.115 1014.12L670.747 523.094V118.75H738.884" stroke="#6D1521" stroke-width="30" stroke-linecap="round" stroke-linejoin="round"/>
<path d="M288.313 118.75H669.307" stroke="#6D1521" stroke-width="30" stroke-linecap="round" stroke-linejoin="round"/>
<path d="M402.359 816.063C291.497 717.85 206.515 775.141 177.881 816.063L140.389 896.262C-132.971 1406.45 402.359 1294.79 674.296 1298.49C891.845 1301.45 911.746 1122.05 894.503 1031.98L796.739 816.063C774.718 871.832 679.042 815.446 633.956 780.281C604.058 761.157 553.119 781.104 524.802 799.406C496.327 824.699 433.207 837.655 402.359 816.063Z" fill="#6D1521"/>
</svg>
